<svg width="124" height="124" viewBox="0 0 124 124" fill="none" xmlns="http://www.w3.org/2000/svg">
<circle cx="62" cy="62" r="62" fill="#1BBC9B" fill-opacity="0.25"/>
<circle cx="62" cy="62" r="47" fill="#0E497A" fill-opacity="0.2"/>
<g clip-path="url(#clip0_30979_5838)">
<path d="M45.4023 49.8311L49.5977 81.7183C49.7205 82.6511 50.5155 83.3486 51.4567 83.3486H72.543C73.4842 83.3486 74.2792 82.6511 74.402 81.7183L77.6411 57.0986L78.8748 47.7236H47.5098L45.4023 49.8311Z" fill="#DADADA"/>
<path d="M60.125 55.2236V75.8486C60.125 76.8846 60.9641 77.7236 62 77.7236C63.0359 77.7236 63.875 76.8846 63.875 75.8486V55.2236C63.875 54.1877 63.0359 53.3486 62 53.3486C60.9641 53.3486 60.125 54.1877 60.125 55.2236Z" fill="#F2F8FF"/>
<path d="M52.625 55.2236V75.8486C52.625 76.8846 53.4641 77.7236 54.5 77.7236C55.5359 77.7236 56.375 76.8846 56.375 75.8486V55.2236C56.375 54.1877 55.5359 53.3486 54.5 53.3486C53.4641 53.3486 52.625 54.1877 52.625 55.2236Z" fill="#F2F8FF"/>
<path d="M67.625 55.2236V75.8486C67.625 76.8846 68.4641 77.7236 69.5 77.7236C70.5359 77.7236 71.375 76.8846 71.375 75.8486V55.2236C71.375 54.1877 70.5359 53.3486 69.5 53.3486C68.4641 53.3486 67.625 54.1877 67.625 55.2236Z" fill="#F2F8FF"/>
<path opacity="0.12" d="M74.402 81.7183L74.7686 78.9311C62.7367 74.7058 54.4361 62.9346 55.1777 49.5827L55.2808 47.7236H47.5098L45.4023 49.8311L49.5977 81.7183C49.7205 82.6511 50.5155 83.3486 51.4567 83.3486H72.543C73.4842 83.3486 74.2792 82.6511 74.402 81.7183Z" fill="#303030"/>
<path d="M81.0304 44.7285C80.9703 43.5472 79.9634 42.5604 78.7812 42.5241L44.5297 41.4712C43.3475 41.4349 42.438 42.3628 42.4981 43.544L42.715 47.822L81.2481 49.0057L81.0304 44.7285Z" fill="#DADADA"/>
<path opacity="0.12" d="M77.9278 45.5564L43.0009 45.5769L43.1814 48.179L80.6518 48.157L80.3639 44.0043C80.2844 42.8574 79.2882 41.9284 78.1386 41.9291L77.6764 41.9294L77.9278 45.5564Z" fill="#303030"/>
<path d="M55.6026 39.1422L55.6004 39.1436C55.3086 39.3426 55.0938 39.5217 54.9712 39.8261C54.8579 40.1074 54.8337 40.4743 54.821 41.01C54.821 41.0105 54.821 41.011 54.821 41.0115L54.7952 41.7471H49.2014L48.8435 41.7471C45.9347 41.747 44.4626 41.7469 43.664 41.8014C43.2502 41.8296 42.9876 41.8736 42.7916 41.9545C42.6017 42.0329 42.4872 42.1422 42.3799 42.2446C42.371 42.2531 42.3621 42.2616 42.3532 42.2701C42.2376 42.377 42.1306 42.483 42.0455 42.6162C41.9577 42.7536 41.9013 42.9066 41.863 43.1016C41.79 43.4738 41.7755 44.0495 41.7585 45.0608L41.7585 45.0609C41.7413 46.1066 41.7471 46.7832 41.8043 47.2574C41.8629 47.744 41.9782 48.0395 42.1888 48.3118C42.3797 48.5597 42.5782 48.7373 42.8793 48.8496C43.1643 48.9558 43.5255 48.9971 44.0248 49.0187C44.3665 49.0347 44.5611 49.0484 44.6719 49.067L44.6721 49.0693C44.6775 49.1298 44.6854 49.217 44.6957 49.3294C44.7164 49.5543 44.7469 49.8811 44.7861 50.2986C44.8646 51.1337 44.9779 52.3321 45.1176 53.8048C45.3384 56.1338 45.625 59.1492 45.9435 62.4993C46.0278 63.3862 46.1144 64.2965 46.2025 65.2239L46.2025 65.2239C46.3036 66.2861 46.3982 67.2811 46.4868 68.2132C47.1433 75.1202 47.4716 78.5749 47.7042 80.3565C47.8349 81.3582 47.9387 81.8639 48.0676 82.1598C48.1794 82.4164 48.3276 82.5348 48.4523 82.6345C48.4848 82.6605 48.5157 82.6852 48.544 82.7107L48.7116 82.5252M55.6026 39.1422L74.0295 83.2253C73.9093 83.2806 73.7859 83.314 73.5025 83.3377C73.2236 83.3611 72.7688 83.3767 71.975 83.3875C70.3841 83.409 67.4019 83.4111 61.6709 83.4111C55.94 83.4111 52.9578 83.409 51.3669 83.3875C50.573 83.3767 50.1182 83.3611 49.8394 83.3377C49.5552 83.3139 49.4319 83.2804 49.3115 83.2248L49.3115 83.2249L49.3084 83.2234C49.0906 83.1192 48.7519 82.8997 48.5434 82.7102L48.7116 82.5252M55.6026 39.1422L55.8862 38.9531L55.9491 38.9111H56.0248H61.6709H67.317H67.3927L67.4557 38.9531L67.7393 39.1422L67.7415 39.1436C68.0333 39.3426 68.2481 39.5217 68.3707 39.8261C68.484 40.1074 68.5082 40.4743 68.5208 41.01L55.6026 39.1422ZM48.7116 82.5252C48.9006 82.6971 49.2186 82.9033 49.4162 82.9979L42.3866 48.1588C42.7303 48.6057 43.0397 48.726 44.0366 48.7689C44.767 48.8033 44.9131 48.8291 44.9131 48.9494C44.9131 49.0187 45.4712 54.8887 46.1924 62.476C46.2767 63.3628 46.3633 64.273 46.4514 65.2002C47.9543 80.9881 48.0091 81.8996 48.4929 82.3414C48.5568 82.3998 48.6283 82.4499 48.7116 82.5252ZM80.9888 42.2701C81.1043 42.377 81.2113 42.483 81.2964 42.6162C81.3842 42.7536 81.4406 42.9066 81.4789 43.1016C81.5519 43.4738 81.5664 44.0495 81.5834 45.0608V45.0609L80.8178 42.4525M80.9888 42.2701C80.9884 42.2697 80.9879 42.2694 80.9875 42.269L80.8178 42.4525M80.9888 42.2701C80.9891 42.2704 80.9894 42.2707 80.9897 42.271L80.8178 42.4525M80.9888 42.2701C80.9799 42.2617 80.9709 42.2532 80.962 42.2446C80.8547 42.1422 80.7402 42.0329 80.5502 41.9545C80.3542 41.8736 80.0916 41.8296 79.6779 41.8014C78.8793 41.7469 77.4071 41.747 74.4984 41.7471L74.1405 41.7471H68.5467M80.8178 42.4525C80.7534 42.3915 80.6995 42.3386 80.6401 42.2928C80.2484 41.9906 79.6184 41.9971 74.1405 41.9971H68.3053M68.5467 41.7471L68.5552 41.9883L68.3053 41.9971M68.5467 41.7471L68.5209 41.0115L68.3053 41.9971M68.5467 41.7471H68.3053V41.9971M45.8803 48.9502H61.6709H77.4552L77.4508 48.9828L77.4505 48.9847C77.4197 49.2148 76.7244 56.5046 75.9025 65.2197L45.8803 48.9502ZM45.8803 48.9502L45.8911 49.0258L45.8911 49.0258L45.8917 49.0301C45.9181 49.2413 46.6148 56.5444 47.4394 65.2626L45.8803 48.9502ZM67.1351 40.2243L67.1342 40.2236C67.1087 40.203 67.0998 40.1971 67.0903 40.1923C67.081 40.1875 67.0611 40.1789 67.0159 40.1695C66.918 40.1491 66.7412 40.1324 66.3842 40.1211C65.6771 40.0987 64.3336 40.0986 61.6709 40.0986C61.0975 40.0986 60.5805 40.0976 60.1141 40.0966C59.2605 40.0948 58.5766 40.0934 58.027 40.0996C57.1701 40.1091 56.669 40.1375 56.3735 40.2033C56.228 40.2357 56.1587 40.2721 56.1249 40.2994C56.0996 40.3198 56.084 40.3428 56.0732 40.3919C56.06 40.452 56.0576 40.5355 56.0624 40.6696C56.0635 40.7032 56.0652 40.7398 56.0669 40.7789C56.0716 40.8854 56.0772 41.0109 56.0772 41.1463V41.833H61.6709H67.2647V41.1463C67.2647 40.6767 67.2612 40.4729 67.2385 40.3599C67.2295 40.3152 67.2204 40.3029 67.2163 40.2975C67.2071 40.285 67.1907 40.2688 67.1351 40.2243ZM80.2624 43.3713C80.2594 43.3507 80.2572 43.3407 80.2567 43.3382L80.2558 43.3358C80.2481 43.3143 80.223 43.2694 80.1772 43.2148C80.1346 43.1639 80.087 43.1203 80.0472 43.093C80.0414 43.0908 80.0254 43.0857 79.9917 43.0797C79.9274 43.0682 79.8187 43.0565 79.6283 43.0459C79.2495 43.0248 78.5824 43.0098 77.377 42.999C74.9689 42.9775 70.4328 42.9732 61.8083 42.9689C56.8199 42.9689 52.2548 42.9754 48.9176 42.9872C47.249 42.9931 45.8876 43.0004 44.934 43.0088C44.4571 43.013 44.0828 43.0176 43.8232 43.0224C43.6932 43.0248 43.5931 43.0272 43.5236 43.0297C43.4887 43.0309 43.4631 43.0321 43.4461 43.0332C43.4436 43.0334 43.4414 43.0335 43.4395 43.0337C43.4045 43.0439 43.3489 43.0695 43.2867 43.1104C43.219 43.1549 43.167 43.2021 43.1417 43.2343L43.1404 43.2361C43.106 43.279 43.0922 43.3015 43.0804 43.3353C43.0659 43.3766 43.0509 43.4464 43.0397 43.5864C43.017 43.8692 43.0147 44.3632 43.0147 45.3228C43.0147 46.4256 43.0243 46.9947 43.0826 47.316C43.1107 47.4705 43.1455 47.5373 43.174 47.573C43.1986 47.6039 43.2338 47.6312 43.3112 47.6683C43.3282 47.6698 43.3523 47.6714 43.3846 47.6732C43.4593 47.6773 43.5677 47.6814 43.7087 47.6853C43.99 47.6933 44.3945 47.7007 44.9052 47.7075C45.9263 47.7212 47.3682 47.7326 49.091 47.7418C52.5365 47.76 57.1036 47.7691 61.6709 47.7691C66.2383 47.7691 70.8054 47.76 74.2509 47.7418C75.9737 47.7326 77.4156 47.7212 78.4367 47.7075C78.9474 47.7007 79.3518 47.6933 79.6332 47.6853C79.7742 47.6814 79.8825 47.6773 79.9573 47.6732C79.989 47.6715 80.0129 47.6698 80.0298 47.6683C80.1048 47.6316 80.14 47.6043 80.165 47.5734C80.1936 47.5379 80.2281 47.4726 80.2564 47.3237C80.3154 47.013 80.3272 46.4638 80.3272 45.4002C80.3272 44.8696 80.3186 44.366 80.3037 43.9811C80.2963 43.7884 80.2873 43.6278 80.2773 43.5094C80.2723 43.45 80.2672 43.404 80.2624 43.3713ZM61.6709 82.1807H73.4345L49.6023 81.9679C49.6024 81.9679 49.6025 81.968 49.6026 81.968L49.9073 82.1807H61.6709ZM79.325 49.0187C78.9787 49.0348 78.7819 49.0485 78.67 49.0672L80.9553 48.1588L81.1535 48.3112C81.1533 48.3114 81.1532 48.3116 81.153 48.3118C80.9623 48.5596 80.7639 48.7371 80.464 48.8495C80.1799 48.9558 79.8205 48.9971 79.325 49.0187Z" fill="#696969" stroke="#696969" stroke-width="0.5"/>
<path d="M59.1875 55.2236V75.8486C59.1875 77.3993 60.4494 78.6611 62 78.6611C63.5506 78.6611 64.8125 77.3993 64.8125 75.8486V55.2236C64.8125 53.673 63.5506 52.4111 62 52.4111C60.4494 52.4111 59.1875 53.673 59.1875 55.2236ZM62.9375 55.2236V75.8486C62.9375 76.3652 62.5166 76.7861 62 76.7861C61.4834 76.7861 61.0625 76.3652 61.0625 75.8486V55.2236C61.0625 54.7071 61.4834 54.2861 62 54.2861C62.5166 54.2861 62.9375 54.7071 62.9375 55.2236Z" fill="#696969"/>
<path d="M51.6875 55.2236V75.8486C51.6875 77.3993 52.9494 78.6611 54.5 78.6611C56.0506 78.6611 57.3125 77.3993 57.3125 75.8486V55.2236C57.3125 53.673 56.0506 52.4111 54.5 52.4111C52.9494 52.4111 51.6875 53.673 51.6875 55.2236ZM55.4375 55.2236V75.8486C55.4375 76.3652 55.0166 76.7861 54.5 76.7861C53.9834 76.7861 53.5625 76.3652 53.5625 75.8486V55.2236C53.5625 54.7071 53.9834 54.2861 54.5 54.2861C55.0166 54.2861 55.4375 54.7071 55.4375 55.2236Z" fill="#696969"/>
<path d="M66.6875 55.2236V75.8486C66.6875 77.3993 67.9494 78.6611 69.5 78.6611C71.0506 78.6611 72.3125 77.3993 72.3125 75.8486V55.2236C72.3125 53.673 71.0506 52.4111 69.5 52.4111C67.9494 52.4111 66.6875 53.673 66.6875 55.2236ZM70.4375 55.2236V75.8486C70.4375 76.3652 70.0166 76.7861 69.5 76.7861C68.9834 76.7861 68.5625 76.3652 68.5625 75.8486V55.2236C68.5625 54.7071 68.9834 54.2861 69.5 54.2861C70.0166 54.2861 70.4375 54.7071 70.4375 55.2236Z" fill="#696969"/>
</g>
<defs>
<clipPath id="clip0_30979_5838">
<rect width="60" height="60" fill="white" transform="translate(32 32)"/>
</clipPath>
</defs>
</svg>
