<svg width="16" height="16" viewBox="0 0 16 16" fill="none" xmlns="http://www.w3.org/2000/svg">
<path d="M5.33317 8.66659C5.70136 8.66659 5.99984 8.36811 5.99984 7.99992C5.99984 7.63173 5.70136 7.33325 5.33317 7.33325C4.96498 7.33325 4.6665 7.63173 4.6665 7.99992C4.6665 8.36811 4.96498 8.66659 5.33317 8.66659Z" stroke="#C1CDD7" stroke-width="2" stroke-linecap="round" stroke-linejoin="round"/>
<path d="M10.0002 8.66659C10.3684 8.66659 10.6668 8.36811 10.6668 7.99992C10.6668 7.63173 10.3684 7.33325 10.0002 7.33325C9.63197 7.33325 9.3335 7.63173 9.3335 7.99992C9.3335 8.36811 9.63197 8.66659 10.0002 8.66659Z" stroke="#C1CDD7" stroke-width="2" stroke-linecap="round" stroke-linejoin="round"/>
<path d="M5.33317 4.00008C5.70136 4.00008 5.99984 3.7016 5.99984 3.33341C5.99984 2.96522 5.70136 2.66675 5.33317 2.66675C4.96498 2.66675 4.6665 2.96522 4.6665 3.33341C4.6665 3.7016 4.96498 4.00008 5.33317 4.00008Z" stroke="#C1CDD7" stroke-width="2" stroke-linecap="round" stroke-linejoin="round"/>
<path d="M10.0002 4.00008C10.3684 4.00008 10.6668 3.7016 10.6668 3.33341C10.6668 2.96522 10.3684 2.66675 10.0002 2.66675C9.63197 2.66675 9.3335 2.96522 9.3335 3.33341C9.3335 3.7016 9.63197 4.00008 10.0002 4.00008Z" stroke="#C1CDD7" stroke-width="2" stroke-linecap="round" stroke-linejoin="round"/>
<path d="M5.33317 13.3333C5.70136 13.3333 5.99984 13.0349 5.99984 12.6667C5.99984 12.2985 5.70136 12 5.33317 12C4.96498 12 4.6665 12.2985 4.6665 12.6667C4.6665 13.0349 4.96498 13.3333 5.33317 13.3333Z" stroke="#C1CDD7" stroke-width="2" stroke-linecap="round" stroke-linejoin="round"/>
<path d="M10.0002 13.3333C10.3684 13.3333 10.6668 13.0349 10.6668 12.6667C10.6668 12.2985 10.3684 12 10.0002 12C9.63197 12 9.3335 12.2985 9.3335 12.6667C9.3335 13.0349 9.63197 13.3333 10.0002 13.3333Z" stroke="#C1CDD7" stroke-width="2" stroke-linecap="round" stroke-linejoin="round"/>
</svg>
