<svg width="18" height="18" viewBox="0 0 18 18" fill="none" xmlns="http://www.w3.org/2000/svg">
<path d="M13.0781 1.08984H4.92188C4.30137 1.08984 3.79688 1.59434 3.79688 2.21484V15.7148C3.79688 16.3354 4.30137 16.8398 4.92188 16.8398H13.0781C13.6986 16.8398 14.2031 16.3354 14.2031 15.7148V2.21484C14.2031 1.59434 13.6986 1.08984 13.0781 1.08984ZM12.9375 15.5742H5.0625V2.35547H12.9375V15.5742ZM8.29688 13.7812C8.29688 13.9677 8.37095 14.1466 8.50282 14.2784C8.63468 14.4103 8.81352 14.4844 9 14.4844C9.18648 14.4844 9.36532 14.4103 9.49718 14.2784C9.62905 14.1466 9.70312 13.9677 9.70312 13.7812C9.70312 13.5948 9.62905 13.4159 9.49718 13.2841C9.36532 13.1522 9.18648 13.0781 9 13.0781C8.81352 13.0781 8.63468 13.1522 8.50282 13.2841C8.37095 13.4159 8.29688 13.5948 8.29688 13.7812Z" fill="#0E497A"/>
</svg>
