<svg width="18" height="18" viewBox="0 0 18 18" fill="none" xmlns="http://www.w3.org/2000/svg">
<path d="M15 3H4.5C3.67275 3 3 3.67275 3 4.5V8.25H4.5V6L9.3 9.6C9.42987 9.69725 9.58775 9.74981 9.75 9.74981C9.91225 9.74981 10.0701 9.69725 10.2 9.6L15 6V12.75H9V14.25H15C15.8273 14.25 16.5 13.5773 16.5 12.75V4.5C16.5 3.67275 15.8273 3 15 3ZM9.75 8.0625L4.9995 4.5H14.5005L9.75 8.0625Z" fill="#0E497A"/>
<path d="M1.5 9H6.75V10.5H1.5V9ZM3 11.25H7.5V12.75H3V11.25ZM5.25 13.5H8.25V15H5.25V13.5Z" fill="#0E497A"/>
</svg>
