<svg width="169" height="61" viewBox="0 0 169 61" fill="none" xmlns="http://www.w3.org/2000/svg">
<path d="M55.3987 19.4985L59.4534 15.5475L58.1823 14.2323C56.6831 12.6304 54.9055 11.317 52.937 10.3567C50.8668 9.45762 48.6268 9.02173 46.3723 9.07926C43.4495 9.05573 40.5756 9.83279 38.0591 11.327C35.6139 12.779 33.5821 14.8396 32.1595 17.3101C30.7101 19.7865 29.9488 22.6086 29.9551 25.4817C29.915 28.4639 30.6646 31.4032 32.1273 33.9982C33.529 36.47 35.5548 38.5264 38.0001 39.9598C40.4656 41.3971 43.2701 42.1417 46.1202 42.1159C48.4101 42.1498 50.682 41.7056 52.7922 40.8114C54.8461 39.8835 56.6854 38.5361 58.193 36.855L59.4105 35.5236L55.2647 31.5726L54.015 33.0334C53.0653 34.2104 51.86 35.1533 50.4915 35.7896C49.123 36.4258 47.6277 36.7387 46.1202 36.7041C44.2618 36.7109 42.4351 36.2201 40.8279 35.2822C39.2208 34.3444 37.8911 32.9933 36.9757 31.3678C35.9891 29.6041 35.4909 27.6069 35.533 25.5841C35.5212 23.6516 36.0389 21.7532 37.0294 20.0968C38.0036 18.3987 39.3939 16.9792 41.0679 15.9733C42.6563 14.9804 44.491 14.4573 46.3615 14.4641C48.1401 14.3918 49.9012 14.8413 51.4299 15.7577C52.4123 16.4122 53.3126 17.1831 54.1116 18.054L55.3987 19.4985Z" fill="#0E497A"/>
<path d="M109.424 17.3262C111.392 15.9894 114.122 15.7091 115.919 16.6955C116.841 17.1968 117.817 17.7736 118.541 18.221V11.8012L117.233 11.2622C115.598 10.5281 113.813 10.1942 112.025 10.2879C110.236 10.3816 108.496 10.9002 106.946 11.8012L105.83 12.475V10.3189H99.6302V42.8758H105.83V24.2203C105.823 22.8401 106.165 21.4807 106.822 20.2692C107.433 19.0863 108.327 18.0748 109.424 17.3262Z" fill="#0E497A"/>
<path d="M154.159 42.1966V9.61817H147.948V12.5289L146.806 11.7743C146.629 11.6503 146.452 11.5371 146.27 11.4239C143.695 9.80915 140.723 8.95029 137.688 8.94439C134.752 8.93649 131.87 9.73616 129.354 11.2568C126.833 12.7734 124.747 14.9208 123.298 17.4894C121.849 20.058 121.088 22.9602 121.088 25.9128C121.088 28.8654 121.849 31.7676 123.298 34.3362C124.747 36.9048 126.833 39.0522 129.354 40.5688C131.889 42.0992 134.794 42.8991 137.751 42.8811C140.708 42.863 143.603 42.0276 146.119 40.4664C146.355 40.3208 146.586 40.1753 146.811 40.019L147.948 39.2643V42.2128L154.159 42.1966ZM146.65 31.3731C145.747 33.0147 144.44 34.3956 142.853 35.3834C141.336 36.3526 139.572 36.8616 137.774 36.8495C135.951 36.8589 134.164 36.3467 132.62 35.3726C130.995 34.3853 129.646 32.9999 128.699 31.3461C127.743 29.7233 127.244 27.8691 127.257 25.9829C127.247 24.0878 127.747 22.2253 128.705 20.5926C129.647 18.9203 130.991 17.5119 132.615 16.4961C134.135 15.5196 135.901 14.998 137.705 14.9922C139.51 14.9865 141.278 15.4969 142.805 16.4637C144.405 17.463 145.725 18.8563 146.64 20.5118C147.57 22.17 148.061 24.0406 148.066 25.9443C148.071 27.848 147.589 29.7211 146.666 31.3839L146.65 31.3731Z" fill="#0E497A"/>
<path d="M15.4262 23.2556L12.1545 22.3877C7.22565 21.1156 6.79122 19.6549 6.79122 18.2642C6.79122 15.0301 10.0092 13.882 12.8142 13.882C16.236 13.882 18.553 15.499 19.0142 18.275L19.1376 19.0027H24.694L24.635 18.0756C24.2864 12.5883 19.3682 8.61035 12.943 8.61035C5.97063 8.61035 1.06855 12.6314 1.06855 18.3936C1.06855 24.6516 5.72929 26.6352 9.78397 27.6701L13.7957 28.7158C18.7085 29.9556 19.3736 31.7344 19.3736 33.3137C19.3736 35.8848 16.6168 37.8253 12.9376 37.8253C8.93655 37.8253 6.19589 36.0573 5.78291 33.2113L5.67565 32.4674H0.108521L0.178238 33.3999C0.618031 39.216 5.61129 43.1023 12.6051 43.1023C20.1995 43.1023 25.1016 39.065 25.1016 32.8232C25.1016 26.5813 20.4516 24.5223 15.4262 23.2556Z" fill="#0E497A"/>
<path d="M86.8065 11.0847C84.3164 9.58569 81.4683 8.79395 78.5657 8.79395C75.6631 8.79395 72.815 9.58569 70.325 11.0847C67.891 12.5793 65.887 14.6862 64.5111 17.1972C63.0971 19.7267 62.3581 22.5807 62.3658 25.482C62.3484 28.401 63.0661 31.277 64.4521 33.8422C65.8146 36.387 67.8174 38.5281 70.2606 40.0517C72.7779 41.592 75.6659 42.4121 78.6131 42.4235C81.5602 42.4349 84.4544 41.6372 86.9834 40.1164C89.3947 38.6078 91.3568 36.4739 92.6632 33.9392C94.0124 31.3281 94.703 28.424 94.6745 25.482C94.6883 22.5902 93.9684 19.7425 92.5828 17.208C91.2275 14.6913 89.2349 12.5789 86.8065 11.0847V11.0847ZM87.2087 31.0716C86.3812 32.6711 85.1445 34.02 83.626 34.9795C82.1429 35.9331 80.4146 36.4296 78.6542 36.408C76.8622 36.4335 75.1015 35.9354 73.5859 34.9742C72.0408 34.0076 70.7727 32.6534 69.9066 31.0447C68.9994 29.3958 68.5337 27.5385 68.5551 25.6545C68.5412 23.7707 69.0084 21.9148 69.912 20.2643C70.7766 18.6356 72.046 17.2596 73.5966 16.2701C75.0905 15.3282 76.8183 14.8286 78.5818 14.8286C80.3453 14.8286 82.0731 15.3282 83.567 16.2701C85.0964 17.2428 86.3433 18.6039 87.1819 20.2158C88.0776 21.8821 88.5371 23.7499 88.5174 25.6437C88.5316 27.5356 88.0763 29.4012 87.1926 31.0716H87.2087Z" fill="#0E497A"/>
<path d="M162.357 1.61596H160.519V6.74034H159.769V1.61596H157.934V0.992188H162.357V1.61596Z" fill="#0E497A"/>
<path d="M164.18 0.992188L166.05 5.6823L167.92 0.992188H168.898V6.74034H168.144V4.50188L168.214 2.08576L166.337 6.74034H165.759L163.886 2.0976L163.96 4.50188V6.74034H163.206V0.992188H164.18Z" fill="#0E497A"/>
<path d="M122.114 46.6948H126.86C127.672 46.6948 128.302 46.9235 128.75 47.3808C129.207 47.8381 129.436 48.4448 129.436 49.2008C129.436 49.5741 129.385 49.8915 129.282 50.1528C129.189 50.4141 129.058 50.6288 128.89 50.7968C128.731 50.9648 128.54 51.0908 128.316 51.1748C128.101 51.2495 127.868 51.2915 127.616 51.3008V51.3848C127.849 51.3848 128.092 51.4268 128.344 51.5108C128.605 51.5948 128.843 51.7301 129.058 51.9168C129.273 52.0941 129.45 52.3275 129.59 52.6168C129.739 52.9061 129.814 53.2608 129.814 53.6808C129.814 54.0635 129.749 54.4275 129.618 54.7728C129.497 55.1088 129.324 55.4028 129.1 55.6548C128.876 55.9068 128.61 56.1075 128.302 56.2568C127.994 56.3968 127.658 56.4668 127.294 56.4668H122.114V46.6948ZM124.242 54.6748H126.692C126.972 54.6748 127.191 54.6001 127.35 54.4508C127.518 54.2921 127.602 54.0728 127.602 53.7928V53.3168C127.602 53.0368 127.518 52.8221 127.35 52.6728C127.191 52.5141 126.972 52.4348 126.692 52.4348H124.242V54.6748ZM124.242 50.6988H126.356C126.636 50.6988 126.855 50.6195 127.014 50.4608C127.173 50.3021 127.252 50.0828 127.252 49.8028V49.3828C127.252 49.1028 127.173 48.8835 127.014 48.7248C126.855 48.5661 126.636 48.4868 126.356 48.4868H124.242V50.6988ZM131.452 56.4668V46.6948H138.102V48.5848H133.58V50.5868H137.458V52.4628H133.58V54.5768H138.102V56.4668H131.452ZM144.03 48.5848V56.4668H141.902V48.5848H139.256V46.6948L146.676 46.6948V48.5848L144.03 48.5848ZM153.236 56.4668L152.536 54.1428H149.274L148.574 56.4668L146.418 56.4668L149.638 46.6948H152.27L155.448 56.4668H153.236ZM150.926 48.6268H150.856L149.778 52.3368H152.018L150.926 48.6268Z" fill="#F8A73A"/>
</svg>
